<svg xmlns="http://www.w3.org/2000/svg" xmlns:xlink="http://www.w3.org/1999/xlink" viewBox="0 0 287.94 472.42"><defs><style>.cls-1{stroke:#a194ff;stroke-miterlimit:10;stroke-width:0.25px;fill:url(#linear-gradient);}</style><linearGradient id="linear-gradient" x1="-20.12" y1="454.97" x2="279.93" y2="26.46" gradientUnits="userSpaceOnUse"><stop offset="0.39" stop-color="#838bc5"/><stop offset="0.42" stop-color="#7d84bd"/><stop offset="0.56" stop-color="#5d6198"/><stop offset="0.69" stop-color="#46487c"/><stop offset="0.81" stop-color="#38386c"/><stop offset="0.9" stop-color="#336"/></linearGradient></defs><title>Asset 1</title><g id="Layer_2" data-name="Layer 2"><g id="Layer_1-2" data-name="Layer 1"><path class="cls-1" d="M66.52,378.47C88.48,392.83,84,408,121.15,408c54.07,0,89-27,89-60.83,0-35.48-30.68-54.91-85.59-75.19C51,245.83.25,221.42.25,172.43c99-5.18-4.17-87.07,0-125.66C29.28,26.15,116.37,7,116.37,7S227.66-7.68,250.47,5.84l3,182.18C237.39,177.88,193.8,65.18,155.79,65.18c-43.93,0-68.43,31.3-68.43,61.71,0,33.8,24.5,69.94,77.72,90.22C302.69,257.44,287.3,307,287.3,367.78c0,71.81-70.69,95.17-167.84,95.17-44.78,0-114.9,9.31-114.9,9.31Z"/></g></g></svg>